<svg xmlns="http://www.w3.org/2000/svg" viewBox="0 0 760 280" width="760" height="280" role="img" font-family="Roboto, 'Helvetica Neue', Helvetica, Arial, sans-serif"><title>A multi-scale pyramid</title><desc>The same three by three window around one pixel, taken on the full-resolution image and on two and four times coarser copies, covers more and more of the scene.</desc><text x="114" y="32" font-size="13.5" fill="#e4e6eb" text-anchor="middle" font-weight="bold" >full resolution</text>
<rect x="30" y="50" width="10.5" height="10.5" fill="#bfdcf4" shape-rendering="crispEdges"/>
<rect x="40.5" y="50" width="10.5" height="10.5" fill="#bfdcf4" shape-rendering="crispEdges"/>
<rect x="51" y="50" width="10.5" height="10.5" fill="#bfdcf4" shape-rendering="crispEdges"/>
<rect x="61.5" y="50" width="10.5" height="10.5" fill="#bfdcf4" shape-rendering="crispEdges"/>
<rect x="72" y="50" width="10.5" height="10.5" fill="#bfdcf4" shape-rendering="crispEdges"/>
<rect x="82.5" y="50" width="10.5" height="10.5" fill="#bfdcf4" shape-rendering="crispEdges"/>
<rect x="93" y="50" width="10.5" height="10.5" fill="#bfdcf4" shape-rendering="crispEdges"/>
<rect x="103.5" y="50" width="10.5" height="10.5" fill="#bfdcf4" shape-rendering="crispEdges"/>
<rect x="114" y="50" width="10.5" height="10.5" fill="#bfdcf4" shape-rendering="crispEdges"/>
<rect x="124.5" y="50" width="10.5" height="10.5" fill="#bfdcf4" shape-rendering="crispEdges"/>
<rect x="135" y="50" width="10.5" height="10.5" fill="#bfdcf4" shape-rendering="crispEdges"/>
<rect x="145.5" y="50" width="10.5" height="10.5" fill="#bfdcf4" shape-rendering="crispEdges"/>
<rect x="156" y="50" width="10.5" height="10.5" fill="#bfdcf4" shape-rendering="crispEdges"/>
<rect x="166.5" y="50" width="10.5" height="10.5" fill="#bfdcf4" shape-rendering="crispEdges"/>
<rect x="177" y="50" width="10.5" height="10.5" fill="#bfdcf4" shape-rendering="crispEdges"/>
<rect x="187.5" y="50" width="10.5" height="10.5" fill="#bfdcf4" shape-rendering="crispEdges"/>
<rect x="30" y="60.5" width="10.5" height="10.5" fill="#bfdcf4" shape-rendering="crispEdges"/>
<rect x="40.5" y="60.5" width="10.5" height="10.5" fill="#bfdcf4" shape-rendering="crispEdges"/>
<rect x="51" y="60.5" width="10.5" height="10.5" fill="#bfdcf4" shape-rendering="crispEdges"/>
<rect x="61.5" y="60.5" width="10.5" height="10.5" fill="#bfdcf4" shape-rendering="crispEdges"/>
<rect x="72" y="60.5" width="10.5" height="10.5" fill="#bfdcf4" shape-rendering="crispEdges"/>
<rect x="82.5" y="60.5" width="10.5" height="10.5" fill="#bfdcf4" shape-rendering="crispEdges"/>
<rect x="93" y="60.5" width="10.5" height="10.5" fill="#bfdcf4" shape-rendering="crispEdges"/>
<rect x="103.5" y="60.5" width="10.5" height="10.5" fill="#bfdcf4" shape-rendering="crispEdges"/>
<rect x="114" y="60.5" width="10.5" height="10.5" fill="#bfdcf4" shape-rendering="crispEdges"/>
<rect x="124.5" y="60.5" width="10.5" height="10.5" fill="#bfdcf4" shape-rendering="crispEdges"/>
<rect x="135" y="60.5" width="10.5" height="10.5" fill="#bfdcf4" shape-rendering="crispEdges"/>
<rect x="145.5" y="60.5" width="10.5" height="10.5" fill="#bfdcf4" shape-rendering="crispEdges"/>
<rect x="156" y="60.5" width="10.5" height="10.5" fill="#bfdcf4" shape-rendering="crispEdges"/>
<rect x="166.5" y="60.5" width="10.5" height="10.5" fill="#bfdcf4" shape-rendering="crispEdges"/>
<rect x="177" y="60.5" width="10.5" height="10.5" fill="#bfdcf4" shape-rendering="crispEdges"/>
<rect x="187.5" y="60.5" width="10.5" height="10.5" fill="#bfdcf4" shape-rendering="crispEdges"/>
<rect x="30" y="71" width="10.5" height="10.5" fill="#bfdcf4" shape-rendering="crispEdges"/>
<rect x="40.5" y="71" width="10.5" height="10.5" fill="#bfdcf4" shape-rendering="crispEdges"/>
<rect x="51" y="71" width="10.5" height="10.5" fill="#bfdcf4" shape-rendering="crispEdges"/>
<rect x="61.5" y="71" width="10.5" height="10.5" fill="#bfdcf4" shape-rendering="crispEdges"/>
<rect x="72" y="71" width="10.5" height="10.5" fill="#bfdcf4" shape-rendering="crispEdges"/>
<rect x="82.5" y="71" width="10.5" height="10.5" fill="#bfdcf4" shape-rendering="crispEdges"/>
<rect x="93" y="71" width="10.5" height="10.5" fill="#bfdcf4" shape-rendering="crispEdges"/>
<rect x="103.5" y="71" width="10.5" height="10.5" fill="#bfdcf4" shape-rendering="crispEdges"/>
<rect x="114" y="71" width="10.5" height="10.5" fill="#bfdcf4" shape-rendering="crispEdges"/>
<rect x="124.5" y="71" width="10.5" height="10.5" fill="#bfdcf4" shape-rendering="crispEdges"/>
<rect x="135" y="71" width="10.5" height="10.5" fill="#bfdcf4" shape-rendering="crispEdges"/>
<rect x="145.5" y="71" width="10.5" height="10.5" fill="#bfdcf4" shape-rendering="crispEdges"/>
<rect x="156" y="71" width="10.5" height="10.5" fill="#bfdcf4" shape-rendering="crispEdges"/>
<rect x="166.5" y="71" width="10.5" height="10.5" fill="#bfdcf4" shape-rendering="crispEdges"/>
<rect x="177" y="71" width="10.5" height="10.5" fill="#bfdcf4" shape-rendering="crispEdges"/>
<rect x="187.5" y="71" width="10.5" height="10.5" fill="#bfdcf4" shape-rendering="crispEdges"/>
<rect x="30" y="81.5" width="10.5" height="10.5" fill="#bfdcf4" shape-rendering="crispEdges"/>
<rect x="40.5" y="81.5" width="10.5" height="10.5" fill="#bfdcf4" shape-rendering="crispEdges"/>
<rect x="51" y="81.5" width="10.5" height="10.5" fill="#bfdcf4" shape-rendering="crispEdges"/>
<rect x="61.5" y="81.5" width="10.5" height="10.5" fill="#bfdcf4" shape-rendering="crispEdges"/>
<rect x="72" y="81.5" width="10.5" height="10.5" fill="#bfdcf4" shape-rendering="crispEdges"/>
<rect x="82.5" y="81.5" width="10.5" height="10.5" fill="#bfdcf4" shape-rendering="crispEdges"/>
<rect x="93" y="81.5" width="10.5" height="10.5" fill="#bfdcf4" shape-rendering="crispEdges"/>
<rect x="103.5" y="81.5" width="10.5" height="10.5" fill="#bfdcf4" shape-rendering="crispEdges"/>
<rect x="114" y="81.5" width="10.5" height="10.5" fill="#bfdcf4" shape-rendering="crispEdges"/>
<rect x="124.5" y="81.5" width="10.5" height="10.5" fill="#bfdcf4" shape-rendering="crispEdges"/>
<rect x="135" y="81.5" width="10.5" height="10.5" fill="#bfdcf4" shape-rendering="crispEdges"/>
<rect x="145.5" y="81.5" width="10.5" height="10.5" fill="#bfdcf4" shape-rendering="crispEdges"/>
<rect x="156" y="81.5" width="10.5" height="10.5" fill="#bfdcf4" shape-rendering="crispEdges"/>
<rect x="166.5" y="81.5" width="10.5" height="10.5" fill="#bfdcf4" shape-rendering="crispEdges"/>
<rect x="177" y="81.5" width="10.5" height="10.5" fill="#bfdcf4" shape-rendering="crispEdges"/>
<rect x="187.5" y="81.5" width="10.5" height="10.5" fill="#bfdcf4" shape-rendering="crispEdges"/>
<rect x="30" y="92" width="10.5" height="10.5" fill="#bfdcf4" shape-rendering="crispEdges"/>
<rect x="40.5" y="92" width="10.5" height="10.5" fill="#bfdcf4" shape-rendering="crispEdges"/>
<rect x="51" y="92" width="10.5" height="10.5" fill="#9b9ca3" shape-rendering="crispEdges"/>
<rect x="61.5" y="92" width="10.5" height="10.5" fill="#9b9ca3" shape-rendering="crispEdges"/>
<rect x="72" y="92" width="10.5" height="10.5" fill="#9b9ca3" shape-rendering="crispEdges"/>
<rect x="82.5" y="92" width="10.5" height="10.5" fill="#9b9ca3" shape-rendering="crispEdges"/>
<rect x="93" y="92" width="10.5" height="10.5" fill="#9b9ca3" shape-rendering="crispEdges"/>
<rect x="103.5" y="92" width="10.5" height="10.5" fill="#9b9ca3" shape-rendering="crispEdges"/>
<rect x="114" y="92" width="10.5" height="10.5" fill="#bfdcf4" shape-rendering="crispEdges"/>
<rect x="124.5" y="92" width="10.5" height="10.5" fill="#bfdcf4" shape-rendering="crispEdges"/>
<rect x="135" y="92" width="10.5" height="10.5" fill="#bfdcf4" shape-rendering="crispEdges"/>
<rect x="145.5" y="92" width="10.5" height="10.5" fill="#bfdcf4" shape-rendering="crispEdges"/>
<rect x="156" y="92" width="10.5" height="10.5" fill="#bfdcf4" shape-rendering="crispEdges"/>
<rect x="166.5" y="92" width="10.5" height="10.5" fill="#bfdcf4" shape-rendering="crispEdges"/>
<rect x="177" y="92" width="10.5" height="10.5" fill="#bfdcf4" shape-rendering="crispEdges"/>
<rect x="187.5" y="92" width="10.5" height="10.5" fill="#bfdcf4" shape-rendering="crispEdges"/>
<rect x="30" y="102.5" width="10.5" height="10.5" fill="#bfdcf4" shape-rendering="crispEdges"/>
<rect x="40.5" y="102.5" width="10.5" height="10.5" fill="#bfdcf4" shape-rendering="crispEdges"/>
<rect x="51" y="102.5" width="10.5" height="10.5" fill="#9b9ca3" shape-rendering="crispEdges"/>
<rect x="61.5" y="102.5" width="10.5" height="10.5" fill="#9b9ca3" shape-rendering="crispEdges"/>
<rect x="72" y="102.5" width="10.5" height="10.5" fill="#9b9ca3" shape-rendering="crispEdges"/>
<rect x="82.5" y="102.5" width="10.5" height="10.5" fill="#9b9ca3" shape-rendering="crispEdges"/>
<rect x="93" y="102.5" width="10.5" height="10.5" fill="#9b9ca3" shape-rendering="crispEdges"/>
<rect x="103.5" y="102.5" width="10.5" height="10.5" fill="#9b9ca3" shape-rendering="crispEdges"/>
<rect x="114" y="102.5" width="10.5" height="10.5" fill="#bfdcf4" shape-rendering="crispEdges"/>
<rect x="124.5" y="102.5" width="10.5" height="10.5" fill="#bfdcf4" shape-rendering="crispEdges"/>
<rect x="135" y="102.5" width="10.5" height="10.5" fill="#bfdcf4" shape-rendering="crispEdges"/>
<rect x="145.5" y="102.5" width="10.5" height="10.5" fill="#bfdcf4" shape-rendering="crispEdges"/>
<rect x="156" y="102.5" width="10.5" height="10.5" fill="#bfdcf4" shape-rendering="crispEdges"/>
<rect x="166.5" y="102.5" width="10.5" height="10.5" fill="#bfdcf4" shape-rendering="crispEdges"/>
<rect x="177" y="102.5" width="10.5" height="10.5" fill="#bfdcf4" shape-rendering="crispEdges"/>
<rect x="187.5" y="102.5" width="10.5" height="10.5" fill="#bfdcf4" shape-rendering="crispEdges"/>
<rect x="30" y="113" width="10.5" height="10.5" fill="#bfdcf4" shape-rendering="crispEdges"/>
<rect x="40.5" y="113" width="10.5" height="10.5" fill="#bfdcf4" shape-rendering="crispEdges"/>
<rect x="51" y="113" width="10.5" height="10.5" fill="#9b9ca3" shape-rendering="crispEdges"/>
<rect x="61.5" y="113" width="10.5" height="10.5" fill="#9b9ca3" shape-rendering="crispEdges"/>
<rect x="72" y="113" width="10.5" height="10.5" fill="#9b9ca3" shape-rendering="crispEdges"/>
<rect x="82.5" y="113" width="10.5" height="10.5" fill="#9b9ca3" shape-rendering="crispEdges"/>
<rect x="93" y="113" width="10.5" height="10.5" fill="#9b9ca3" shape-rendering="crispEdges"/>
<rect x="103.5" y="113" width="10.5" height="10.5" fill="#9b9ca3" shape-rendering="crispEdges"/>
<rect x="114" y="113" width="10.5" height="10.5" fill="#bfdcf4" shape-rendering="crispEdges"/>
<rect x="124.5" y="113" width="10.5" height="10.5" fill="#bfdcf4" shape-rendering="crispEdges"/>
<rect x="135" y="113" width="10.5" height="10.5" fill="#bfdcf4" shape-rendering="crispEdges"/>
<rect x="145.5" y="113" width="10.5" height="10.5" fill="#bfdcf4" shape-rendering="crispEdges"/>
<rect x="156" y="113" width="10.5" height="10.5" fill="#bfdcf4" shape-rendering="crispEdges"/>
<rect x="166.5" y="113" width="10.5" height="10.5" fill="#bfdcf4" shape-rendering="crispEdges"/>
<rect x="177" y="113" width="10.5" height="10.5" fill="#bfdcf4" shape-rendering="crispEdges"/>
<rect x="187.5" y="113" width="10.5" height="10.5" fill="#bfdcf4" shape-rendering="crispEdges"/>
<rect x="30" y="123.5" width="10.5" height="10.5" fill="#bfdcf4" shape-rendering="crispEdges"/>
<rect x="40.5" y="123.5" width="10.5" height="10.5" fill="#bfdcf4" shape-rendering="crispEdges"/>
<rect x="51" y="123.5" width="10.5" height="10.5" fill="#9b9ca3" shape-rendering="crispEdges"/>
<rect x="61.5" y="123.5" width="10.5" height="10.5" fill="#9b9ca3" shape-rendering="crispEdges"/>
<rect x="72" y="123.5" width="10.5" height="10.5" fill="#9b9ca3" shape-rendering="crispEdges"/>
<rect x="82.5" y="123.5" width="10.5" height="10.5" fill="#9b9ca3" shape-rendering="crispEdges"/>
<rect x="93" y="123.5" width="10.5" height="10.5" fill="#9b9ca3" shape-rendering="crispEdges"/>
<rect x="103.5" y="123.5" width="10.5" height="10.5" fill="#9b9ca3" shape-rendering="crispEdges"/>
<rect x="114" y="123.5" width="10.5" height="10.5" fill="#bfdcf4" shape-rendering="crispEdges"/>
<rect x="124.5" y="123.5" width="10.5" height="10.5" fill="#bfdcf4" shape-rendering="crispEdges"/>
<rect x="135" y="123.5" width="10.5" height="10.5" fill="#bfdcf4" shape-rendering="crispEdges"/>
<rect x="145.5" y="123.5" width="10.5" height="10.5" fill="#4f9a45" shape-rendering="crispEdges"/>
<rect x="156" y="123.5" width="10.5" height="10.5" fill="#4f9a45" shape-rendering="crispEdges"/>
<rect x="166.5" y="123.5" width="10.5" height="10.5" fill="#4f9a45" shape-rendering="crispEdges"/>
<rect x="177" y="123.5" width="10.5" height="10.5" fill="#bfdcf4" shape-rendering="crispEdges"/>
<rect x="187.5" y="123.5" width="10.5" height="10.5" fill="#bfdcf4" shape-rendering="crispEdges"/>
<rect x="30" y="134" width="10.5" height="10.5" fill="#bfdcf4" shape-rendering="crispEdges"/>
<rect x="40.5" y="134" width="10.5" height="10.5" fill="#bfdcf4" shape-rendering="crispEdges"/>
<rect x="51" y="134" width="10.5" height="10.5" fill="#9b9ca3" shape-rendering="crispEdges"/>
<rect x="61.5" y="134" width="10.5" height="10.5" fill="#9b9ca3" shape-rendering="crispEdges"/>
<rect x="72" y="134" width="10.5" height="10.5" fill="#9b9ca3" shape-rendering="crispEdges"/>
<rect x="82.5" y="134" width="10.5" height="10.5" fill="#9b9ca3" shape-rendering="crispEdges"/>
<rect x="93" y="134" width="10.5" height="10.5" fill="#9b9ca3" shape-rendering="crispEdges"/>
<rect x="103.5" y="134" width="10.5" height="10.5" fill="#9b9ca3" shape-rendering="crispEdges"/>
<rect x="114" y="134" width="10.5" height="10.5" fill="#bfdcf4" shape-rendering="crispEdges"/>
<rect x="124.5" y="134" width="10.5" height="10.5" fill="#bfdcf4" shape-rendering="crispEdges"/>
<rect x="135" y="134" width="10.5" height="10.5" fill="#4f9a45" shape-rendering="crispEdges"/>
<rect x="145.5" y="134" width="10.5" height="10.5" fill="#4f9a45" shape-rendering="crispEdges"/>
<rect x="156" y="134" width="10.5" height="10.5" fill="#4f9a45" shape-rendering="crispEdges"/>
<rect x="166.5" y="134" width="10.5" height="10.5" fill="#4f9a45" shape-rendering="crispEdges"/>
<rect x="177" y="134" width="10.5" height="10.5" fill="#4f9a45" shape-rendering="crispEdges"/>
<rect x="187.5" y="134" width="10.5" height="10.5" fill="#bfdcf4" shape-rendering="crispEdges"/>
<rect x="30" y="144.5" width="10.5" height="10.5" fill="#bfdcf4" shape-rendering="crispEdges"/>
<rect x="40.5" y="144.5" width="10.5" height="10.5" fill="#bfdcf4" shape-rendering="crispEdges"/>
<rect x="51" y="144.5" width="10.5" height="10.5" fill="#9b9ca3" shape-rendering="crispEdges"/>
<rect x="61.5" y="144.5" width="10.5" height="10.5" fill="#9b9ca3" shape-rendering="crispEdges"/>
<rect x="72" y="144.5" width="10.5" height="10.5" fill="#9b9ca3" shape-rendering="crispEdges"/>
<rect x="82.5" y="144.5" width="10.5" height="10.5" fill="#9b9ca3" shape-rendering="crispEdges"/>
<rect x="93" y="144.5" width="10.5" height="10.5" fill="#9b9ca3" shape-rendering="crispEdges"/>
<rect x="103.5" y="144.5" width="10.5" height="10.5" fill="#9b9ca3" shape-rendering="crispEdges"/>
<rect x="114" y="144.5" width="10.5" height="10.5" fill="#bfdcf4" shape-rendering="crispEdges"/>
<rect x="124.5" y="144.5" width="10.5" height="10.5" fill="#bfdcf4" shape-rendering="crispEdges"/>
<rect x="135" y="144.5" width="10.5" height="10.5" fill="#4f9a45" shape-rendering="crispEdges"/>
<rect x="145.5" y="144.5" width="10.5" height="10.5" fill="#4f9a45" shape-rendering="crispEdges"/>
<rect x="156" y="144.5" width="10.5" height="10.5" fill="#4f9a45" shape-rendering="crispEdges"/>
<rect x="166.5" y="144.5" width="10.5" height="10.5" fill="#4f9a45" shape-rendering="crispEdges"/>
<rect x="177" y="144.5" width="10.5" height="10.5" fill="#4f9a45" shape-rendering="crispEdges"/>
<rect x="187.5" y="144.5" width="10.5" height="10.5" fill="#bfdcf4" shape-rendering="crispEdges"/>
<rect x="30" y="155" width="10.5" height="10.5" fill="#bfdcf4" shape-rendering="crispEdges"/>
<rect x="40.5" y="155" width="10.5" height="10.5" fill="#bfdcf4" shape-rendering="crispEdges"/>
<rect x="51" y="155" width="10.5" height="10.5" fill="#9b9ca3" shape-rendering="crispEdges"/>
<rect x="61.5" y="155" width="10.5" height="10.5" fill="#9b9ca3" shape-rendering="crispEdges"/>
<rect x="72" y="155" width="10.5" height="10.5" fill="#9b9ca3" shape-rendering="crispEdges"/>
<rect x="82.5" y="155" width="10.5" height="10.5" fill="#9b9ca3" shape-rendering="crispEdges"/>
<rect x="93" y="155" width="10.5" height="10.5" fill="#9b9ca3" shape-rendering="crispEdges"/>
<rect x="103.5" y="155" width="10.5" height="10.5" fill="#9b9ca3" shape-rendering="crispEdges"/>
<rect x="114" y="155" width="10.5" height="10.5" fill="#bfdcf4" shape-rendering="crispEdges"/>
<rect x="124.5" y="155" width="10.5" height="10.5" fill="#bfdcf4" shape-rendering="crispEdges"/>
<rect x="135" y="155" width="10.5" height="10.5" fill="#bfdcf4" shape-rendering="crispEdges"/>
<rect x="145.5" y="155" width="10.5" height="10.5" fill="#4f9a45" shape-rendering="crispEdges"/>
<rect x="156" y="155" width="10.5" height="10.5" fill="#4f9a45" shape-rendering="crispEdges"/>
<rect x="166.5" y="155" width="10.5" height="10.5" fill="#4f9a45" shape-rendering="crispEdges"/>
<rect x="177" y="155" width="10.5" height="10.5" fill="#bfdcf4" shape-rendering="crispEdges"/>
<rect x="187.5" y="155" width="10.5" height="10.5" fill="#bfdcf4" shape-rendering="crispEdges"/>
<rect x="30" y="165.5" width="10.5" height="10.5" fill="#bfdcf4" shape-rendering="crispEdges"/>
<rect x="40.5" y="165.5" width="10.5" height="10.5" fill="#bfdcf4" shape-rendering="crispEdges"/>
<rect x="51" y="165.5" width="10.5" height="10.5" fill="#9b9ca3" shape-rendering="crispEdges"/>
<rect x="61.5" y="165.5" width="10.5" height="10.5" fill="#9b9ca3" shape-rendering="crispEdges"/>
<rect x="72" y="165.5" width="10.5" height="10.5" fill="#9b9ca3" shape-rendering="crispEdges"/>
<rect x="82.5" y="165.5" width="10.5" height="10.5" fill="#9b9ca3" shape-rendering="crispEdges"/>
<rect x="93" y="165.5" width="10.5" height="10.5" fill="#9b9ca3" shape-rendering="crispEdges"/>
<rect x="103.5" y="165.5" width="10.5" height="10.5" fill="#9b9ca3" shape-rendering="crispEdges"/>
<rect x="114" y="165.5" width="10.5" height="10.5" fill="#bfdcf4" shape-rendering="crispEdges"/>
<rect x="124.5" y="165.5" width="10.5" height="10.5" fill="#bfdcf4" shape-rendering="crispEdges"/>
<rect x="135" y="165.5" width="10.5" height="10.5" fill="#bfdcf4" shape-rendering="crispEdges"/>
<rect x="145.5" y="165.5" width="10.5" height="10.5" fill="#bfdcf4" shape-rendering="crispEdges"/>
<rect x="156" y="165.5" width="10.5" height="10.5" fill="#4f9a45" shape-rendering="crispEdges"/>
<rect x="166.5" y="165.5" width="10.5" height="10.5" fill="#bfdcf4" shape-rendering="crispEdges"/>
<rect x="177" y="165.5" width="10.5" height="10.5" fill="#bfdcf4" shape-rendering="crispEdges"/>
<rect x="187.5" y="165.5" width="10.5" height="10.5" fill="#bfdcf4" shape-rendering="crispEdges"/>
<rect x="30" y="176" width="10.5" height="10.5" fill="#4a4e56" shape-rendering="crispEdges"/>
<rect x="40.5" y="176" width="10.5" height="10.5" fill="#4a4e56" shape-rendering="crispEdges"/>
<rect x="51" y="176" width="10.5" height="10.5" fill="#4a4e56" shape-rendering="crispEdges"/>
<rect x="61.5" y="176" width="10.5" height="10.5" fill="#4a4e56" shape-rendering="crispEdges"/>
<rect x="72" y="176" width="10.5" height="10.5" fill="#4a4e56" shape-rendering="crispEdges"/>
<rect x="82.5" y="176" width="10.5" height="10.5" fill="#4a4e56" shape-rendering="crispEdges"/>
<rect x="93" y="176" width="10.5" height="10.5" fill="#4a4e56" shape-rendering="crispEdges"/>
<rect x="103.5" y="176" width="10.5" height="10.5" fill="#4a4e56" shape-rendering="crispEdges"/>
<rect x="114" y="176" width="10.5" height="10.5" fill="#4a4e56" shape-rendering="crispEdges"/>
<rect x="124.5" y="176" width="10.5" height="10.5" fill="#4a4e56" shape-rendering="crispEdges"/>
<rect x="135" y="176" width="10.5" height="10.5" fill="#4a4e56" shape-rendering="crispEdges"/>
<rect x="145.5" y="176" width="10.5" height="10.5" fill="#4a4e56" shape-rendering="crispEdges"/>
<rect x="156" y="176" width="10.5" height="10.5" fill="#4a4e56" shape-rendering="crispEdges"/>
<rect x="166.5" y="176" width="10.5" height="10.5" fill="#4a4e56" shape-rendering="crispEdges"/>
<rect x="177" y="176" width="10.5" height="10.5" fill="#4a4e56" shape-rendering="crispEdges"/>
<rect x="187.5" y="176" width="10.5" height="10.5" fill="#4a4e56" shape-rendering="crispEdges"/>
<rect x="30" y="186.5" width="10.5" height="10.5" fill="#4a4e56" shape-rendering="crispEdges"/>
<rect x="40.5" y="186.5" width="10.5" height="10.5" fill="#4a4e56" shape-rendering="crispEdges"/>
<rect x="51" y="186.5" width="10.5" height="10.5" fill="#4a4e56" shape-rendering="crispEdges"/>
<rect x="61.5" y="186.5" width="10.5" height="10.5" fill="#4a4e56" shape-rendering="crispEdges"/>
<rect x="72" y="186.5" width="10.5" height="10.5" fill="#4a4e56" shape-rendering="crispEdges"/>
<rect x="82.5" y="186.5" width="10.5" height="10.5" fill="#4a4e56" shape-rendering="crispEdges"/>
<rect x="93" y="186.5" width="10.5" height="10.5" fill="#4a4e56" shape-rendering="crispEdges"/>
<rect x="103.5" y="186.5" width="10.5" height="10.5" fill="#4a4e56" shape-rendering="crispEdges"/>
<rect x="114" y="186.5" width="10.5" height="10.5" fill="#4a4e56" shape-rendering="crispEdges"/>
<rect x="124.5" y="186.5" width="10.5" height="10.5" fill="#4a4e56" shape-rendering="crispEdges"/>
<rect x="135" y="186.5" width="10.5" height="10.5" fill="#4a4e56" shape-rendering="crispEdges"/>
<rect x="145.5" y="186.5" width="10.5" height="10.5" fill="#4a4e56" shape-rendering="crispEdges"/>
<rect x="156" y="186.5" width="10.5" height="10.5" fill="#4a4e56" shape-rendering="crispEdges"/>
<rect x="166.5" y="186.5" width="10.5" height="10.5" fill="#4a4e56" shape-rendering="crispEdges"/>
<rect x="177" y="186.5" width="10.5" height="10.5" fill="#4a4e56" shape-rendering="crispEdges"/>
<rect x="187.5" y="186.5" width="10.5" height="10.5" fill="#4a4e56" shape-rendering="crispEdges"/>
<rect x="30" y="197" width="10.5" height="10.5" fill="#4a4e56" shape-rendering="crispEdges"/>
<rect x="40.5" y="197" width="10.5" height="10.5" fill="#4a4e56" shape-rendering="crispEdges"/>
<rect x="51" y="197" width="10.5" height="10.5" fill="#4a4e56" shape-rendering="crispEdges"/>
<rect x="61.5" y="197" width="10.5" height="10.5" fill="#4a4e56" shape-rendering="crispEdges"/>
<rect x="72" y="197" width="10.5" height="10.5" fill="#4a4e56" shape-rendering="crispEdges"/>
<rect x="82.5" y="197" width="10.5" height="10.5" fill="#4a4e56" shape-rendering="crispEdges"/>
<rect x="93" y="197" width="10.5" height="10.5" fill="#4a4e56" shape-rendering="crispEdges"/>
<rect x="103.5" y="197" width="10.5" height="10.5" fill="#4a4e56" shape-rendering="crispEdges"/>
<rect x="114" y="197" width="10.5" height="10.5" fill="#4a4e56" shape-rendering="crispEdges"/>
<rect x="124.5" y="197" width="10.5" height="10.5" fill="#4a4e56" shape-rendering="crispEdges"/>
<rect x="135" y="197" width="10.5" height="10.5" fill="#4a4e56" shape-rendering="crispEdges"/>
<rect x="145.5" y="197" width="10.5" height="10.5" fill="#4a4e56" shape-rendering="crispEdges"/>
<rect x="156" y="197" width="10.5" height="10.5" fill="#4a4e56" shape-rendering="crispEdges"/>
<rect x="166.5" y="197" width="10.5" height="10.5" fill="#4a4e56" shape-rendering="crispEdges"/>
<rect x="177" y="197" width="10.5" height="10.5" fill="#4a4e56" shape-rendering="crispEdges"/>
<rect x="187.5" y="197" width="10.5" height="10.5" fill="#4a4e56" shape-rendering="crispEdges"/>
<rect x="30" y="207.5" width="10.5" height="10.5" fill="#4a4e56" shape-rendering="crispEdges"/>
<rect x="40.5" y="207.5" width="10.5" height="10.5" fill="#4a4e56" shape-rendering="crispEdges"/>
<rect x="51" y="207.5" width="10.5" height="10.5" fill="#4a4e56" shape-rendering="crispEdges"/>
<rect x="61.5" y="207.5" width="10.5" height="10.5" fill="#4a4e56" shape-rendering="crispEdges"/>
<rect x="72" y="207.5" width="10.5" height="10.5" fill="#4a4e56" shape-rendering="crispEdges"/>
<rect x="82.5" y="207.5" width="10.5" height="10.5" fill="#4a4e56" shape-rendering="crispEdges"/>
<rect x="93" y="207.5" width="10.5" height="10.5" fill="#4a4e56" shape-rendering="crispEdges"/>
<rect x="103.5" y="207.5" width="10.5" height="10.5" fill="#4a4e56" shape-rendering="crispEdges"/>
<rect x="114" y="207.5" width="10.5" height="10.5" fill="#4a4e56" shape-rendering="crispEdges"/>
<rect x="124.5" y="207.5" width="10.5" height="10.5" fill="#4a4e56" shape-rendering="crispEdges"/>
<rect x="135" y="207.5" width="10.5" height="10.5" fill="#4a4e56" shape-rendering="crispEdges"/>
<rect x="145.5" y="207.5" width="10.5" height="10.5" fill="#4a4e56" shape-rendering="crispEdges"/>
<rect x="156" y="207.5" width="10.5" height="10.5" fill="#4a4e56" shape-rendering="crispEdges"/>
<rect x="166.5" y="207.5" width="10.5" height="10.5" fill="#4a4e56" shape-rendering="crispEdges"/>
<rect x="177" y="207.5" width="10.5" height="10.5" fill="#4a4e56" shape-rendering="crispEdges"/>
<rect x="187.5" y="207.5" width="10.5" height="10.5" fill="#4a4e56" shape-rendering="crispEdges"/>
<rect x="29" y="49" width="170" height="170" rx="2" fill="none" stroke="#4a505e" stroke-width="1" />
<rect x="82.5" y="123.5" width="31.5" height="31.5" rx="3" fill="none" stroke="#ffc552" stroke-width="3" />
<circle cx="98.25" cy="139.25" r="4" fill="#ffc552" stroke="#ffffff" stroke-width="1.5"/>
<text x="114" y="244" font-size="11.5" fill="#a0a7b4" text-anchor="middle" font-weight="normal" >the window sees:</text>
<text x="114" y="262" font-size="13" fill="#e4e6eb" text-anchor="middle" font-weight="bold" >building</text>
<g ><line x1="216" y1="134" x2="257.8" y2="134" stroke="#a0a7b4" stroke-width="1.6" stroke-linecap="round" /><polygon points="262,134 255.7,137.0 255.7,131.0" fill="#a0a7b4"/></g>
<text x="239" y="125" font-size="11.5" fill="#a0a7b4" text-anchor="middle" font-weight="normal" >pool</text>
<text x="364" y="32" font-size="13.5" fill="#e4e6eb" text-anchor="middle" font-weight="bold" >2× coarser</text>
<rect x="280" y="50" width="21" height="21" fill="#bfdcf4" shape-rendering="crispEdges"/>
<rect x="301" y="50" width="21" height="21" fill="#bfdcf4" shape-rendering="crispEdges"/>
<rect x="322" y="50" width="21" height="21" fill="#bfdcf4" shape-rendering="crispEdges"/>
<rect x="343" y="50" width="21" height="21" fill="#bfdcf4" shape-rendering="crispEdges"/>
<rect x="364" y="50" width="21" height="21" fill="#bfdcf4" shape-rendering="crispEdges"/>
<rect x="385" y="50" width="21" height="21" fill="#bfdcf4" shape-rendering="crispEdges"/>
<rect x="406" y="50" width="21" height="21" fill="#bfdcf4" shape-rendering="crispEdges"/>
<rect x="427" y="50" width="21" height="21" fill="#bfdcf4" shape-rendering="crispEdges"/>
<rect x="280" y="71" width="21" height="21" fill="#bfdcf4" shape-rendering="crispEdges"/>
<rect x="301" y="71" width="21" height="21" fill="#bfdcf4" shape-rendering="crispEdges"/>
<rect x="322" y="71" width="21" height="21" fill="#bfdcf4" shape-rendering="crispEdges"/>
<rect x="343" y="71" width="21" height="21" fill="#bfdcf4" shape-rendering="crispEdges"/>
<rect x="364" y="71" width="21" height="21" fill="#bfdcf4" shape-rendering="crispEdges"/>
<rect x="385" y="71" width="21" height="21" fill="#bfdcf4" shape-rendering="crispEdges"/>
<rect x="406" y="71" width="21" height="21" fill="#bfdcf4" shape-rendering="crispEdges"/>
<rect x="427" y="71" width="21" height="21" fill="#bfdcf4" shape-rendering="crispEdges"/>
<rect x="280" y="92" width="21" height="21" fill="#bfdcf4" shape-rendering="crispEdges"/>
<rect x="301" y="92" width="21" height="21" fill="#9b9ca3" shape-rendering="crispEdges"/>
<rect x="322" y="92" width="21" height="21" fill="#9b9ca3" shape-rendering="crispEdges"/>
<rect x="343" y="92" width="21" height="21" fill="#9b9ca3" shape-rendering="crispEdges"/>
<rect x="364" y="92" width="21" height="21" fill="#bfdcf4" shape-rendering="crispEdges"/>
<rect x="385" y="92" width="21" height="21" fill="#bfdcf4" shape-rendering="crispEdges"/>
<rect x="406" y="92" width="21" height="21" fill="#bfdcf4" shape-rendering="crispEdges"/>
<rect x="427" y="92" width="21" height="21" fill="#bfdcf4" shape-rendering="crispEdges"/>
<rect x="280" y="113" width="21" height="21" fill="#bfdcf4" shape-rendering="crispEdges"/>
<rect x="301" y="113" width="21" height="21" fill="#9b9ca3" shape-rendering="crispEdges"/>
<rect x="322" y="113" width="21" height="21" fill="#9b9ca3" shape-rendering="crispEdges"/>
<rect x="343" y="113" width="21" height="21" fill="#9b9ca3" shape-rendering="crispEdges"/>
<rect x="364" y="113" width="21" height="21" fill="#bfdcf4" shape-rendering="crispEdges"/>
<rect x="385" y="113" width="21" height="21" fill="#bfdcf4" shape-rendering="crispEdges"/>
<rect x="406" y="113" width="21" height="21" fill="#bfdcf4" shape-rendering="crispEdges"/>
<rect x="427" y="113" width="21" height="21" fill="#bfdcf4" shape-rendering="crispEdges"/>
<rect x="280" y="134" width="21" height="21" fill="#bfdcf4" shape-rendering="crispEdges"/>
<rect x="301" y="134" width="21" height="21" fill="#9b9ca3" shape-rendering="crispEdges"/>
<rect x="322" y="134" width="21" height="21" fill="#9b9ca3" shape-rendering="crispEdges"/>
<rect x="343" y="134" width="21" height="21" fill="#9b9ca3" shape-rendering="crispEdges"/>
<rect x="364" y="134" width="21" height="21" fill="#bfdcf4" shape-rendering="crispEdges"/>
<rect x="385" y="134" width="21" height="21" fill="#4f9a45" shape-rendering="crispEdges"/>
<rect x="406" y="134" width="21" height="21" fill="#4f9a45" shape-rendering="crispEdges"/>
<rect x="427" y="134" width="21" height="21" fill="#4f9a45" shape-rendering="crispEdges"/>
<rect x="280" y="155" width="21" height="21" fill="#bfdcf4" shape-rendering="crispEdges"/>
<rect x="301" y="155" width="21" height="21" fill="#9b9ca3" shape-rendering="crispEdges"/>
<rect x="322" y="155" width="21" height="21" fill="#9b9ca3" shape-rendering="crispEdges"/>
<rect x="343" y="155" width="21" height="21" fill="#9b9ca3" shape-rendering="crispEdges"/>
<rect x="364" y="155" width="21" height="21" fill="#bfdcf4" shape-rendering="crispEdges"/>
<rect x="385" y="155" width="21" height="21" fill="#bfdcf4" shape-rendering="crispEdges"/>
<rect x="406" y="155" width="21" height="21" fill="#4f9a45" shape-rendering="crispEdges"/>
<rect x="427" y="155" width="21" height="21" fill="#bfdcf4" shape-rendering="crispEdges"/>
<rect x="280" y="176" width="21" height="21" fill="#4a4e56" shape-rendering="crispEdges"/>
<rect x="301" y="176" width="21" height="21" fill="#4a4e56" shape-rendering="crispEdges"/>
<rect x="322" y="176" width="21" height="21" fill="#4a4e56" shape-rendering="crispEdges"/>
<rect x="343" y="176" width="21" height="21" fill="#4a4e56" shape-rendering="crispEdges"/>
<rect x="364" y="176" width="21" height="21" fill="#4a4e56" shape-rendering="crispEdges"/>
<rect x="385" y="176" width="21" height="21" fill="#4a4e56" shape-rendering="crispEdges"/>
<rect x="406" y="176" width="21" height="21" fill="#4a4e56" shape-rendering="crispEdges"/>
<rect x="427" y="176" width="21" height="21" fill="#4a4e56" shape-rendering="crispEdges"/>
<rect x="280" y="197" width="21" height="21" fill="#4a4e56" shape-rendering="crispEdges"/>
<rect x="301" y="197" width="21" height="21" fill="#4a4e56" shape-rendering="crispEdges"/>
<rect x="322" y="197" width="21" height="21" fill="#4a4e56" shape-rendering="crispEdges"/>
<rect x="343" y="197" width="21" height="21" fill="#4a4e56" shape-rendering="crispEdges"/>
<rect x="364" y="197" width="21" height="21" fill="#4a4e56" shape-rendering="crispEdges"/>
<rect x="385" y="197" width="21" height="21" fill="#4a4e56" shape-rendering="crispEdges"/>
<rect x="406" y="197" width="21" height="21" fill="#4a4e56" shape-rendering="crispEdges"/>
<rect x="427" y="197" width="21" height="21" fill="#4a4e56" shape-rendering="crispEdges"/>
<rect x="279" y="49" width="170" height="170" rx="2" fill="none" stroke="#4a505e" stroke-width="1" />
<rect x="322" y="113" width="63" height="63" rx="3" fill="none" stroke="#ffc552" stroke-width="3" />
<circle cx="348.25" cy="139.25" r="4" fill="#ffc552" stroke="#ffffff" stroke-width="1.5"/>
<text x="364" y="244" font-size="11.5" fill="#a0a7b4" text-anchor="middle" font-weight="normal" >the window sees:</text>
<text x="364" y="262" font-size="13" fill="#e4e6eb" text-anchor="middle" font-weight="bold" >sky, building</text>
<g ><line x1="466" y1="134" x2="507.8" y2="134" stroke="#a0a7b4" stroke-width="1.6" stroke-linecap="round" /><polygon points="512,134 505.7,137.0 505.7,131.0" fill="#a0a7b4"/></g>
<text x="489" y="125" font-size="11.5" fill="#a0a7b4" text-anchor="middle" font-weight="normal" >pool</text>
<text x="614" y="32" font-size="13.5" fill="#e4e6eb" text-anchor="middle" font-weight="bold" >4× coarser</text>
<rect x="530" y="50" width="42" height="42" fill="#bfdcf4" shape-rendering="crispEdges"/>
<rect x="572" y="50" width="42" height="42" fill="#bfdcf4" shape-rendering="crispEdges"/>
<rect x="614" y="50" width="42" height="42" fill="#bfdcf4" shape-rendering="crispEdges"/>
<rect x="656" y="50" width="42" height="42" fill="#bfdcf4" shape-rendering="crispEdges"/>
<rect x="530" y="92" width="42" height="42" fill="#bfdcf4" shape-rendering="crispEdges"/>
<rect x="572" y="92" width="42" height="42" fill="#9b9ca3" shape-rendering="crispEdges"/>
<rect x="614" y="92" width="42" height="42" fill="#bfdcf4" shape-rendering="crispEdges"/>
<rect x="656" y="92" width="42" height="42" fill="#bfdcf4" shape-rendering="crispEdges"/>
<rect x="530" y="134" width="42" height="42" fill="#bfdcf4" shape-rendering="crispEdges"/>
<rect x="572" y="134" width="42" height="42" fill="#9b9ca3" shape-rendering="crispEdges"/>
<rect x="614" y="134" width="42" height="42" fill="#bfdcf4" shape-rendering="crispEdges"/>
<rect x="656" y="134" width="42" height="42" fill="#4f9a45" shape-rendering="crispEdges"/>
<rect x="530" y="176" width="42" height="42" fill="#4a4e56" shape-rendering="crispEdges"/>
<rect x="572" y="176" width="42" height="42" fill="#4a4e56" shape-rendering="crispEdges"/>
<rect x="614" y="176" width="42" height="42" fill="#4a4e56" shape-rendering="crispEdges"/>
<rect x="656" y="176" width="42" height="42" fill="#4a4e56" shape-rendering="crispEdges"/>
<rect x="529" y="49" width="170" height="170" rx="2" fill="none" stroke="#4a505e" stroke-width="1" />
<rect x="530" y="92" width="126" height="126" rx="3" fill="none" stroke="#ffc552" stroke-width="3" />
<circle cx="598.25" cy="139.25" r="4" fill="#ffc552" stroke="#ffffff" stroke-width="1.5"/>
<text x="614" y="244" font-size="11.5" fill="#a0a7b4" text-anchor="middle" font-weight="normal" >the window sees:</text>
<text x="614" y="262" font-size="13" fill="#e4e6eb" text-anchor="middle" font-weight="bold" >sky, building, road</text></svg>
